PathFileType	4	(X/Y/Z)	C:\Users\Basilio\Documents\Thesis Gigler\squatting_fais\c3dfiles\044\SJ_pre2\markers_experimental.trc
DataRate	CameraRate	NumFrames	NumMarkers	Units	OrigDataRate	OrigDataStartFrame	OrigNumFrames
200.000000	200.000000	4	62	mm	200.000000	1067	1708
Frame#	Time	FHD			LBHD			RBHD			C7			T10			CLAV			LSHO			LUUPA			LMUPA			LDUPA			LLEP			LMEP			LRAD			LUL			LRFIN			RSHO			RUPA1			RMUPA			RDUPA			RLEP			RMEP			RRAD			RUL			RUFIN			LASI			RASI			USACR			LSACR			LTHI1			LTHI2			LTHI3			LTHI4			LLFC			LMFC			LTIB1			LTIB2			LTIB3			LTIB4			LLMAL			LMMAL			LHEE			LMT1			LMT2			LMT5			RTHI			RTHI2			RTHI3			RTHI4			RLFC			RMFC			RTIB1			RTIB2			RTIB3			RTIB4			RLMAL			RMMAL			RHEE			RMT1			RMT2			RMT5			RSACR			*61			
		X1	Y1	Z1	X2	Y2	Z2	X3	Y3	Z3	X4	Y4	Z4	X5	Y5	Z5	X6	Y6	Z6	X7	Y7	Z7	X8	Y8	Z8	X9	Y9	Z9	X10	Y10	Z10	X11	Y11	Z11	X12	Y12	Z12	X13	Y13	Z13	X14	Y14	Z14	X15	Y15	Z15	X16	Y16	Z16	X17	Y17	Z17	X18	Y18	Z18	X19	Y19	Z19	X20	Y20	Z20	X21	Y21	Z21	X22	Y22	Z22	X23	Y23	Z23	X24	Y24	Z24	X25	Y25	Z25	X26	Y26	Z26	X27	Y27	Z27	X28	Y28	Z28	X29	Y29	Z29	X30	Y30	Z30	X31	Y31	Z31	X32	Y32	Z32	X33	Y33	Z33	X34	Y34	Z34	X35	Y35	Z35	X36	Y36	Z36	X37	Y37	Z37	X38	Y38	Z38	X39	Y39	Z39	X40	Y40	Z40	X41	Y41	Z41	X42	Y42	Z42	X43	Y43	Z43	X44	Y44	Z44	X45	Y45	Z45	X46	Y46	Z46	X47	Y47	Z47	X48	Y48	Z48	X49	Y49	Z49	X50	Y50	Z50	X51	Y51	Z51	X52	Y52	Z52	X53	Y53	Z53	X54	Y54	Z54	X55	Y55	Z55	X56	Y56	Z56	X57	Y57	Z57	X58	Y58	Z58	X59	Y59	Z59	X60	Y60	Z60	X61	Y61	Z61	X62	Y62	Z62	

1068	5.335	6.418075084686281	1214.715209960938	-927.793395996094	-121.9663696289063	1176.539672851563	-1012.077575683594	-174.3539733886719	1164.853515625	-854.650817871094	-229.7046203613282	1068.8525390625	-930.1201782226565	-449.2559509277345	867.282653808594	-920.007019042969	-147.2438354492188	945.294128417969	-929.5750122070315	-157.0846099853516	1002.794982910156	-1103.70361328125	-323.1083374023438	933.699157714844	-1256.684326171875	-333.5346984863282	887.1805419921877	-1246.320190429688	-376.3903503417969	901.4215087890627	-1286.965942382813	-420.7117919921876	862.7276000976565	-1299.281127929688	-471.1982421875001	914.3823852539065	-1252.3349609375	-560.0390625000001	683.0889282226564	-1130.853393554688	-526.3168334960939	642.7705078125001	-1178.3935546875	-506.9487915039064	675.4686889648439	-1089.221923828125	-155.7564849853516	999.5081787109377	-744.7519531250001	-291.3856811523438	918.5794067382815	-580.2136840820314	-301.8241577148438	869.7920532226565	-592.0793457031251	-337.8001403808594	879.4759521484377	-544.4245605468751	-379.6097717285157	834.2534790039065	-529.7383422851564	-443.9222717285157	888.3289794921877	-557.1549072265626	-554.3295898437501	669.3169555664064	-679.7550048828126	-513.0903930664064	626.2180175781251	-636.4987792968751	-497.1200561523439	667.4149780273439	-728.4332275390626	-450.0478820800782	638.2517700195314	-1037.225830078125	-459.0959777832032	622.0186767578126	-803.6773681640627	-562.5281982421876	751.7473144531251	-910.3706665039065	-591.7175292968751	732.1439208984376	-934.9825439453127	-473.5447387695314	539.5676269531251	-1140.6298828125	-390.2698669433595	535.8031616210939	-1162.247680664063	-367.6949157714844	575.6125488281251	-1149.538818359375	-355.5670776367188	487.791717529297	-1170.694091796875	-223.4188385009766	424.9647827148439	-1182.73046875	-207.916488647461	410.9858703613282	-1070.662231445313	-263.7061462402344	265.6196594238282	-1101.962524414063	-315.6033630371094	237.7929229736329	-1169.227905273438	-289.6895141601563	222.0899658203126	-1133.565063476563	-345.4039916992188	168.0497436523438	-1097.591430664063	-452.628387451172	93.57201385498048	-1139.700439453125	-429.5620422363282	100.5473327636719	-1054.779174804688	-519.1241455078126	51.20995330810548	-1092.226196289063	-301.5012512207032	60.15658950805665	-1083.260620117188	-306.1808776855469	63.14082336425783	-1130.117919921875	-343.9356079101563	42.16136169433594	-1174.74560546875	-415.9326171875001	501.2652282714845	-701.8199462890626	-348.7181396484376	515.4768066406251	-697.6154785156251	-335.0109863281251	543.2657470703126	-706.8836669921876	-288.5693969726563	456.0623779296876	-701.3535766601564	-218.0673828125001	403.5985107421876	-705.7145996093751	-220.4285278320313	392.325164794922	-821.9929199218752	-232.3240814208985	274.7148742675782	-734.8491210937501	-332.4387512207032	262.9167175292969	-685.0159912109376	-303.8536682128907	232.3436431884766	-704.2073974609376	-330.5492248535157	188.5164489746094	-729.6321411132814	-472.7131347656251	96.59948730468753	-704.4133911132814	-450.7745666503907	96.52301025390628	-791.8452758789065	-537.3896484375001	51.63841247558595	-750.1268310546876	-324.2658386230469	61.62585067749025	-757.1293945312501	-320.9634704589844	60.24176406860353	-720.5477294921876	-359.0056457519532	42.75364303588868	-667.6451416015626	-586.5447387695314	733.5140991210939	-879.242858886719	nan	nan	nan	
1069	5.34	6.559897422790529	1214.296630859375	-927.9893798828127	-121.6832122802735	1176.203247070313	-1012.219909667969	-174.11962890625	1164.51123046875	-854.713562011719	-229.6733856201172	1068.643798828125	-930.1748657226565	-449.1996154785157	867.0110473632815	-920.005798339844	-146.9439544677735	944.8862304687502	-929.713073730469	-156.9180145263672	1002.231506347656	-1103.863525390625	-322.9598388671876	933.3946533203127	-1256.744995117188	-333.5024719238282	886.6741333007815	-1246.406494140625	-376.2722473144532	901.187927246094	-1287.001342773438	-420.6968078613282	862.403259277344	-1299.333129882813	-471.3223571777345	914.2884521484377	-1252.467529296875	-560.2670898437501	682.9158325195314	-1130.95751953125	-526.6406860351564	642.6244506835939	-1178.316772460938	-507.1174926757814	675.2807617187501	-1089.25048828125	-155.5628204345703	999.0022583007815	-744.8356323242189	-291.1840820312501	918.1832275390627	-580.2973632812501	-301.6520385742188	869.4487304687502	-592.1600341796876	-337.5431518554688	879.152038574219	-544.3159179687501	-379.5598144531251	834.0452270507815	-529.9373779296876	-443.6648559570314	888.0550537109377	-557.2129516601564	-554.3530273437501	669.2409057617189	-679.7603149414064	-513.1184082031251	626.0382080078126	-636.6742553710939	-497.1040954589845	667.2095947265626	-728.4954833984376	-450.0997314453126	638.0718994140626	-1037.30517578125	-459.8368225097657	620.1651000976564	-804.888610839844	-562.4143066406251	751.5010986328126	-910.4224853515627	-592.0866699218751	732.1890258789064	-934.818786621094	-473.606658935547	539.3810424804689	-1140.653564453125	-390.3890686035157	535.5526733398439	-1162.349365234375	-367.8914489746094	575.1803588867189	-1149.702758789063	-355.6174926757813	487.5644531250001	-1170.800903320313	-223.2987518310547	424.8716735839845	-1182.841796875	-207.9145812988282	410.9849853515626	-1070.772705078125	-263.7269897460938	265.6577453613282	-1101.991577148438	-315.6275329589844	237.8070831298829	-1169.322509765625	-289.6986389160157	222.0614013671876	-1133.60400390625	-345.4071960449219	168.0506591796875	-1097.579956054688	-452.6299438476564	93.49900054931642	-1139.738159179688	-429.4893188476564	100.5325622558594	-1054.794311523438	-519.1071166992189	51.24439239501955	-1092.2294921875	-301.5102844238282	60.13368606567384	-1083.24072265625	-306.1762390136719	63.12883758544923	-1130.105224609375	-343.9570922851563	42.15517044067384	-1174.695434570313	-415.8739013671876	501.0107421875001	-701.7734375000001	-348.7173767089844	515.1593627929689	-697.4729614257814	-335.0320434570313	543.0256958007814	-706.9675292968751	-288.5811767578126	456.0319824218751	-701.3884887695314	-217.9888305664063	403.5059509277345	-705.7897949218751	-220.5383300781251	392.2224731445314	-822.128112792969	-232.2240600585938	274.5105285644532	-734.9137573242189	-332.4152526855469	262.9163208007813	-685.0313110351564	-303.8327026367188	232.4033813476563	-704.2048339843751	-330.5822753906251	188.5439147949219	-729.6749267578126	-472.7233276367189	96.62522888183597	-704.4205322265626	-450.745819091797	96.47454071044925	-791.8580322265627	-537.3338623046876	51.60197067260744	-750.2459106445314	-324.2494812011719	61.6304168701172	-757.1584472656251	-320.9685058593751	60.22504043579103	-720.5597534179689	-358.9928283691407	42.75359725952149	-667.6816406250001	-586.6049804687501	733.2534790039064	-879.2994384765627	nan	nan	nan	
1070	5.345	6.654566764831545	1213.83154296875	-928.1206665039065	-121.3481140136719	1175.851196289063	-1012.46826171875	-173.8900451660157	1164.13671875	-854.8115844726565	-229.5698242187501	1067.997436523438	-930.1435546875002	-449.1062011718751	866.805847167969	-920.0520629882815	-146.8322143554688	944.333679199219	-929.9123535156252	-156.7511901855469	1001.72314453125	-1103.984130859375	-322.7023010253907	933.1319580078127	-1256.809692382813	-333.4561767578126	886.238708496094	-1246.457885742188	-376.2570800781251	900.900085449219	-1287.09619140625	-420.6981811523439	861.978942871094	-1299.417236328125	-471.3281860351564	913.9560546875002	-1252.463745117188	-560.4443969726564	682.7661743164064	-1131.089233398438	-526.7689208984376	642.4209594726564	-1178.377563476563	-507.3167724609376	674.9479370117189	-1089.32958984375	-155.2814025878907	998.5167236328127	-744.7769775390626	-291.0180664062501	917.736999511719	-580.2276000976564	-301.6482238769532	869.2448730468752	-592.1395263671876	-337.3873596191407	878.7855224609377	-544.3583984375001	-379.5216979980469	833.8286132812502	-529.8005371093751	-443.5320739746095	887.6718750000002	-557.2590332031251	-554.3804931640626	669.1323242187501	-679.8845825195314	-513.1898803710939	625.8510742187501	-636.8561401367189	-497.306854248047	667.0699462890626	-728.6680297851564	-450.3230895996095	637.8964843750001	-1037.398193359375	-460.0991821289064	619.6692504882814	-805.028015136719	-562.6523437500001	751.0870971679689	-910.4129638671877	-592.2802124023439	731.8994140625001	-934.811462402344	-473.6314697265626	539.0740966796876	-1140.712036132813	-390.3905639648439	535.5366821289064	-1162.424194335938	-367.8912048339844	575.1548461914064	-1149.755493164063	-355.6483154296876	487.4977416992189	-1170.884643554688	-223.3753356933594	424.8990783691407	-1182.892700195313	-207.9126586914063	410.8829040527345	-1070.839111328125	-263.7498168945313	265.6839599609376	-1102.076416015625	-315.6161804199219	237.7725372314454	-1169.361450195313	-289.7074584960938	222.0471954345704	-1133.612060546875	-345.4012756347657	168.0805206298828	-1097.616577148438	-452.6382141113282	93.57971954345705	-1139.712646484375	-429.4983215332032	100.5729446411133	-1054.799438476563	-519.0953369140626	51.26545715332033	-1092.228515625	-301.5059509277344	60.14135360717775	-1083.242431640625	-306.1556396484376	63.17440414428712	-1130.134521484375	-343.9132995605469	42.19170761108399	-1174.732421875	-415.939422607422	500.9824218750001	-701.8922729492189	-348.7882690429688	515.0875854492189	-697.4174804687501	-335.0946960449219	542.9707641601564	-707.0388183593751	-288.3952941894532	455.5993957519532	-701.0252685546876	-217.9292449951172	403.4569702148439	-705.7888793945314	-220.5138702392579	392.1116943359376	-822.0413208007815	-232.2701110839844	274.5162353515626	-734.8966064453126	-332.3750610351563	262.8781127929688	-685.0323486328126	-303.7930603027344	232.3707122802735	-704.3056030273439	-330.5556945800782	188.5223541259766	-729.6838989257814	-472.6992187500001	96.6706466674805	-704.4652099609376	-450.7425537109376	96.48393249511722	-791.857849121094	-537.3555908203126	51.64606094360353	-750.2583618164064	-324.2959594726563	61.59349441528322	-757.1561279296876	-320.9658813476563	60.25281906127931	-720.5490722656251	-358.9609985351563	42.90436553955079	-667.6666259765626	-586.6592407226564	733.0241088867189	-879.3289794921877	nan	nan	nan	
1071	5.350000000000001	6.998438835144045	1212.887817382813	-928.2653808593752	-121.3072509765625	1175.100219726563	-1012.490417480469	-173.6902313232422	1163.288696289063	-854.9876708984377	-229.2294921875001	1067.460327148438	-930.379333496094	-449.0284118652345	866.5849609375002	-920.0811767578127	-146.7302398681641	943.6836547851565	-929.9816894531252	-156.9412384033203	1001.518005371094	-1104.153686523438	-322.6426696777344	932.767517089844	-1256.845581054688	-333.3181762695313	885.801940917969	-1246.630493164063	-376.2568054199219	900.4567871093752	-1287.18603515625	-420.7180480957032	861.5488281250002	-1299.460205078125	-471.3389587402345	913.7314453125002	-1252.609130859375	-560.5527954101564	682.4894409179689	-1131.137329101563	-527.4210815429689	641.5747070312501	-1177.929565429688	-507.4925231933595	674.7152709960939	-1089.374755859375	-155.1670379638672	998.1248779296877	-744.7643432617189	-290.8870849609376	917.2991943359377	-580.3930664062501	-301.3952636718751	868.9265136718752	-592.1016235351564	-337.2553405761719	878.5231933593752	-544.3724365234376	-379.5855712890626	833.5666503906252	-529.8507690429689	-443.3829040527345	887.361511230469	-557.2809448242189	-554.5108032226564	668.8512573242189	-679.9339599609376	-513.2605590820314	625.7092895507814	-636.9555053710939	-497.3975830078126	666.7887573242189	-728.6506958007814	-449.771942138672	637.8585205078126	-1037.936401367188	-460.4012756347657	619.0226440429689	-805.3262939453127	-562.8014526367189	750.7449951171876	-910.471618652344	-592.3909301757814	731.6781005859376	-934.889099121094	-473.6587219238282	539.0246582031251	-1140.782470703125	-390.365936279297	535.4539794921876	-1162.475463867188	-367.9849243164063	575.0570678710939	-1149.811645507813	-355.6281127929688	487.4389953613282	-1170.967041015625	-224.0762329101563	425.279754638672	-1182.995483398438	-207.9263610839844	410.827117919922	-1070.984619140625	-263.7953491210938	265.7140808105469	-1102.215209960938	-315.6098022460938	237.7713928222657	-1169.411743164063	-289.7170104980469	222.0343017578126	-1133.649047851563	-345.4038391113282	168.0815734863282	-1097.623901367188	-452.6600341796876	93.61255645751955	-1139.692749023438	-429.4811096191407	100.5886611938477	-1054.794555664063	-519.1091918945314	51.23551559448244	-1092.213623046875	-301.4826965332032	60.11679458618165	-1083.250610351563	-306.1547241210938	63.15439987182619	-1130.150390625	-343.9162597656251	42.19875717163087	-1174.760986328125	-415.8636169433595	500.7189331054689	-701.8574829101564	-348.7671508789063	515.0278320312501	-697.4937744140626	-335.1052856445313	542.8005371093751	-707.1239624023439	-288.4595642089844	455.6581420898439	-701.5416870117189	-217.8095703125001	403.4753723144532	-705.9478149414064	-220.2324981689454	392.1694641113282	-822.3445434570315	-232.1750640869141	274.4402770996094	-734.9996948242189	-332.3680419921876	262.8137207031251	-685.0566406250001	-303.6942749023438	232.3560485839844	-704.3611450195314	-330.5692443847657	188.4444732666016	-729.7045288085939	-472.6939086914064	96.73299407958987	-704.4608154296876	-450.728973388672	96.45438385009768	-791.8850708007815	-537.3624267578126	51.71458053588869	-750.2760620117189	-324.2711181640626	61.6249465942383	-757.1533203125001	-320.9209899902344	60.14867019653322	-720.5811767578126	-358.9619140625001	42.93310165405274	-667.6657104492189	-586.7657470703126	732.6983642578126	-879.3850097656252	nan	nan	nan	
